<svg width="64" height="64" viewBox="0 0 64 64" xmlns="http://www.w3.org/2000/svg">
    <g fill="none" fill-rule="evenodd">
        <path d="M32 2C15.432 2 2 15.432 2 32s13.432 30 30 30 30-13.432 30-30S48.568 2 32 2zm14.95 39.177C46.372 43.372 39.74 40.5 32 40.5c-8.273 0-14.964 3.073-14.95 6.853C9.25 41.227 6 36.573 6 31.5c0-6.904 5.596-12.5 12.5-12.5h3c2.128 0 4.11-.544 5.836-1.498 1.41-3.086 4.725-5.245 8.664-5.502 4.04-.258 7.702 1.77 9.798 5.09C48.058 13.162 51.72 11.155 55.76 11c3.939-.155 7.254 2.32 8.664 5.406 1.725.954 3.708 1.498 5.836 1.498h3C62.404 19 68 24.596 68 31.5c0 5.073-3.25 9.727-8.05 9.677z" fill="#000" fill-opacity=".2"/>
        <path d="M55.76 11c3.939-.155 7.254 2.32 8.664 5.406 1.725.954 3.708 1.498 5.836 1.498h3C62.404 19 68 24.596 68 31.5c0 5.073-3.25 9.727-8.05 9.677C46.372 43.372 39.74 40.5 32 40.5v-3c-7.72 0-14-6.28-14-14s6.28-14 14-14v-3c7.74 0 14.372-2.872 19.71-7.177C64.75 22.773 63 27.427 63 32.5c0 6.904-5.596 12.5-12.5 12.5h-3c-2.128 0-4.11.544-5.836 1.498-1.41 3.086-4.725 5.245-8.664 5.502C29.94 57.844 26.278 55.918 24.182 52.598 23.75 53.392 22.872 54 22 54c-.45 0-.88-.15-1.226-.42-.37-.297-.61-.748-.692-1.258-.076-.527.048-1.052.33-1.45C19.46 47.552 19 45.58 19 43.5c0-.277.028-.545.078-.805-.92-.36-1.83-.83-2.683-1.402C15.034 43.41 15 43.956 15 44.5c0 3.584 2.916 6.5 6.5 6.5h3c2.145 0 4.103-.734 5.666-1.958.147-.15.337-.242.534-.281C29.38 49.414 30.683 49 32 49c1.345 0 2.583.422 3.625 1.126.198.078.386.2.547.358 1.608 1.61 3.746 2.516 6.078 2.516 5.485 0 9.93-4.408 10-9.883 2.562-.42 4.5-2.76 4.5-5.617 0-2.773-1.989-5.095-4.634-5.607z" fill="#4CAF50"/>
    </g>
</svg>
