<svg width="200" height="200" viewBox="0 0 200 200" xmlns="http://www.w3.org/2000/svg">
    <!-- Cloud -->
    <g fill="#4CAF50">
        <path d="M98.5 50c-2.755 0-5-2.245-5-5 0-8.271-6.729-15-15-15-6.788 0-12.43 4.493-14.352 10.633C61.267 42.404 58.854 41 56 41c-6.627 0-12 5.373-12 12s5.373 12 12 12h54c7.179 0 13 5.821 13 13s-5.821 13-13 13H48c-6.627 0-12 5.373-12 12s5.373 12 12 12c8.838 0 16 7.162 16 16s-7.162 16-16 16c-2.755 0-5-2.245-5-5 0-8.271-6.729-15-15-15-8.838 0-16-7.162-16-16s7.162-16 16-16h54c7.179 0 13-5.821 13-13s-5.821-13-13-13h-1.5z"/>
    </g>
    <!-- Lock -->
    <g fill="#000" fill-opacity=".2">
        <path d="M98.5 40c-2.21 0-4 1.79-4 4v9c0 3.309-2.691 6-6 6s-6-2.691-6-6v-9c0-6.627 5.373-12 12-12s12 5.373 12 12v7c0 2.21 1.79 4 4 4s4-1.79 4-4v-7c0-10.493-8.507-19-19-19s-19 8.507-19 19v9c0 8.271 6.729 15 15 15s15-6.729 15-15v-9c0-2.21-1.79-4-4-4zm-18.5 20c-2.755 0-5 2.245-5 5v3h10v-3c0-2.755-2.245-5-5-5zm12 4h-14v-5c0-4.418 3.582-8 8-8s8 3.582 8 8v5z"/>
    </g>
    <!-- Text: CloudSafeKeep -->
    <text x="35" y="170" font-family="Arial, sans-serif" font-size="18" fill="#000">CloudSafeKeep</text>
</svg>
