<?xml version="1.0" encoding="UTF-8"?>
<!DOCTYPE svg PUBLIC "-//W3C//DTD SVG 1.1//EN" "http://www.w3.org/Graphics/SVG/1.1/DTD/svg11.dtd">
<svg xmlns="http://www.w3.org/2000/svg" version="1.1" width="512px" height="512px" style="shape-rendering:geometricPrecision; text-rendering:geometricPrecision; image-rendering:optimizeQuality; fill-rule:evenodd; clip-rule:evenodd" xmlns:xlink="http://www.w3.org/1999/xlink">
<g><path style="opacity:0.998" fill="#d6e3e7" d="M 472.5,305.5 C 460.435,312.357 447.102,316.857 432.5,319C 405.502,319.5 378.502,319.667 351.5,319.5C 353.307,310.872 350.974,303.705 344.5,298C 342.608,297.027 340.608,296.36 338.5,296C 332.175,295.5 325.842,295.334 319.5,295.5C 319.667,281.496 319.5,267.496 319,253.5C 311.81,222.143 292.31,204.143 260.5,199.5C 224.017,199.495 201.184,217.161 192,252.5C 191.5,266.829 191.333,281.163 191.5,295.5C 188.833,295.5 186.167,295.5 183.5,295.5C 165.833,293.833 157.833,301.833 159.5,319.5C 147.829,319.667 136.162,319.5 124.5,319C 76.1997,309.199 50.533,279.699 47.5,230.5C 47.9443,213.177 52.611,197.177 61.5,182.5C 84.932,167.262 110.265,163.262 137.5,170.5C 146.322,125.714 171.988,94.8806 214.5,78C 268.721,61.7572 314.221,74.9239 351,117.5C 362.88,133.266 370.38,150.932 373.5,170.5C 414.433,160.642 447.6,172.308 473,205.5C 488.064,229.479 491.731,255.146 484,282.5C 481.191,290.786 477.357,298.452 472.5,305.5 Z"/></g>
<g><path style="opacity:1" fill="#baced3" d="M 61.5,182.5 C 52.611,197.177 47.9443,213.177 47.5,230.5C 50.533,279.699 76.1997,309.199 124.5,319C 136.162,319.5 147.829,319.667 159.5,319.5C 159.5,327.5 159.5,335.5 159.5,343.5C 139.164,343.667 118.831,343.5 98.5,343C 57,334.833 32.1667,310 24,268.5C 19.9143,232.36 32.4143,203.693 61.5,182.5 Z"/></g>
<g><path style="opacity:1" fill="#f9af43" d="M 260.5,199.5 C 231.619,206.882 214.119,225.216 208,254.5C 207.5,268.163 207.333,281.829 207.5,295.5C 202.167,295.5 196.833,295.5 191.5,295.5C 191.333,281.163 191.5,266.829 192,252.5C 201.184,217.161 224.017,199.495 260.5,199.5 Z"/></g>
<g><path style="opacity:1" fill="#f7c460" d="M 260.5,199.5 C 292.31,204.143 311.81,222.143 319,253.5C 319.5,267.496 319.667,281.496 319.5,295.5C 308.833,295.5 298.167,295.5 287.5,295.5C 287.667,282.496 287.5,269.496 287,256.5C 280.772,238.128 267.938,229.961 248.5,232C 235.667,235.5 227.5,243.667 224,256.5C 223.5,269.496 223.333,282.496 223.5,295.5C 218.167,295.5 212.833,295.5 207.5,295.5C 207.333,281.829 207.5,268.163 208,254.5C 214.119,225.216 231.619,206.882 260.5,199.5 Z"/></g>
<g><path style="opacity:1" fill="#d6e3e7" d="M 287.5,295.5 C 266.167,295.5 244.833,295.5 223.5,295.5C 223.333,282.496 223.5,269.496 224,256.5C 227.5,243.667 235.667,235.5 248.5,232C 267.938,229.961 280.772,238.128 287,256.5C 287.5,269.496 287.667,282.496 287.5,295.5 Z"/></g>
<g><path style="opacity:1" fill="#44a7d8" d="M 183.5,295.5 C 183.333,331.502 183.5,367.502 184,403.5C 185.743,408.91 189.243,412.744 194.5,415C 246.832,415.5 299.166,415.667 351.5,415.5C 354.23,426.118 350.896,433.952 341.5,439C 284.167,439.667 226.833,439.667 169.5,439C 165,437.167 161.833,434 160,429.5C 159.5,400.835 159.333,372.169 159.5,343.5C 159.5,335.5 159.5,327.5 159.5,319.5C 157.833,301.833 165.833,293.833 183.5,295.5 Z"/></g>
<g><path style="opacity:1" fill="#62b5e7" d="M 183.5,295.5 C 186.167,295.5 188.833,295.5 191.5,295.5C 196.833,295.5 202.167,295.5 207.5,295.5C 212.833,295.5 218.167,295.5 223.5,295.5C 244.833,295.5 266.167,295.5 287.5,295.5C 298.167,295.5 308.833,295.5 319.5,295.5C 325.842,295.334 332.175,295.5 338.5,296C 340.608,296.36 342.608,297.027 344.5,298C 350.974,303.705 353.307,310.872 351.5,319.5C 351.5,327.5 351.5,335.5 351.5,343.5C 351.5,367.5 351.5,391.5 351.5,415.5C 299.166,415.667 246.832,415.5 194.5,415C 189.243,412.744 185.743,408.91 184,403.5C 183.5,367.502 183.333,331.502 183.5,295.5 Z"/></g>
<g><path style="opacity:1" fill="#baced3" d="M 472.5,305.5 C 457.868,326.329 437.868,338.829 412.5,343C 392.169,343.5 371.836,343.667 351.5,343.5C 351.5,335.5 351.5,327.5 351.5,319.5C 378.502,319.667 405.502,319.5 432.5,319C 447.102,316.857 460.435,312.357 472.5,305.5 Z"/></g>
<g><path style="opacity:1" fill="#f7c360" d="M 249.5,327.5 C 269.544,326.393 279.378,335.727 279,355.5C 277.703,360.09 275.87,364.423 273.5,368.5C 275.781,381.139 277.781,393.806 279.5,406.5C 263.5,407.833 247.5,407.833 231.5,406.5C 233.219,393.806 235.219,381.139 237.5,368.5C 226.585,350.259 230.585,336.593 249.5,327.5 Z"/></g>
</svg>
